<?xml version="1.0" encoding="utf-8"?>
<!-- Generator: Adobe Illustrator 25.0.0, SVG Export Plug-In . SVG Version: 6.00 Build 0)  -->
<svg version="1.1" id="Calque_1" xmlns="http://www.w3.org/2000/svg" xmlns:xlink="http://www.w3.org/1999/xlink" x="0px" y="0px"
	 viewBox="0 0 283.4 68.4" style="enable-background:new 0 0 283.4 68.4;" xml:space="preserve">
<style type="text/css">
	.st0{fill:#FF0000;}
</style>
<g id="Calque_2_1_">
	<g id="Calque_1-2">
		<path class="st0" d="M236.8,13.9V12c0-0.2,0.1-0.4,0.2-0.6h3.6V2.9h6.5v8.3h5.6c0.3-2.7-0.1-5.5,0.2-8.4h6.4v8.5h4.4v4.3
			c0.3-0.3,0.6-0.5,0.7-0.6c0.8-1.4,2-2.6,3.5-3.2c2.1-1.1,4.5-1.4,6.9-1c3.4,0.5,6.2,2.8,7.5,6c0.8,2.1,1.2,4.3,1.2,6.6
			c0,1.7-0.2,3.4-0.6,5.1c-0.6,2.9-2.5,5.4-5.2,6.8c-2,1-4.3,1.4-6.5,1c-2.9-0.4-5.5-2-7.1-4.5c0,1.4-0.1,2.4-0.1,3.5
			c-1.5,0.4-3,0.6-4.5,0.6c-1.3,0-2.6-0.3-3.7-0.8c-1.4-0.7-2.4-2.1-2.7-3.7c-0.3-1.5-0.4-3.1-0.3-4.7v-8.8c0-0.3-0.1-0.5-0.2-0.8
			H247v9.8c0,0.4,0,0.8,0.1,1.1c0.3,1.2,1.6,1.9,2.8,1.6h0.1c0.5-0.1,0.9-0.2,1.3-0.4c0.7,0.2,0.7,0.8,0.7,1.3
			c-0.1,1.6-0.2,3.1-0.3,4.7c-0.1,0.1-0.2,0.3-0.4,0.3c-1.9,0.4-3.8,0.5-5.7,0.3c-2.5-0.4-4.4-2.3-4.9-4.8c-0.2-1.9-0.3-3.8-0.2-5.7
			c-0.1-2.5,0-5,0-7.5c0-0.2-0.1-0.5-0.1-0.7h-1.6c0.2,2.7,1.2,5.3,0.1,8h-13.3c-0.2,1.8,0.5,3.6,1.8,4.9c1.1,1,2.8,0.8,3.8-0.3
			c0.1-0.1,0.1-0.2,0.2-0.3c0.3-0.5,0.6-1,0.8-1.6c0.2-0.4,0.3-0.8,0.5-1.1c2.3,0.1,4.6,0.6,6.7,1.5c-0.4,2.7-2,5-4.2,6.5
			c-1.7,1.2-3.8,1.8-5.9,1.8c-3.6,0.1-6.9-1.8-8.7-4.9c-1.1-2-1.7-4.3-1.8-6.6c-0.2-2.4,0.1-4.9,0.9-7.2c0.9-3,3.2-5.4,6.2-6.4
			c3.1-1.2,6.6-0.8,9.3,1.1C235.6,12.8,236.1,13.3,236.8,13.9z M273.2,30.4c1.7-0.5,2.9-2,3-3.7c0.2-1.4,0.3-2.8,0.3-4.2
			c0-1.5-0.4-2.9-1.1-4.2c-0.7-1.4-2.4-2-3.8-1.4c-0.5,0.2-0.9,0.6-1.2,1c-0.3,0.4-0.6,0.8-0.7,1.3c-0.9,3-0.8,6.2,0.2,9.1
			c0.3,0.9,1.2,1.6,2.1,1.8C272.4,30.3,272.8,30.3,273.2,30.4z M259.5,17.2c-0.1,0.1-0.1,0.3-0.1,0.4c0,3.3-0.1,6.6-0.1,10
			c0,1.2,1,2.1,2.2,2.1c0,0,0,0,0,0c0.4,0,0.8-0.1,1.1-0.3c-0.3-2-0.4-4.1-0.5-6.1c0.1-2,0.4-4.1,0.7-6.1L259.5,17.2z M232.3,20.1
			c0.4-1.9-0.5-3-2.9-3.8c-2.2,0.5-3.6,1.9-3.4,3.8H232.3z"/>
		<path class="st0" d="M76,47.8h-6.6l-0.2-2c-1.5,2.1-4.1,3.1-6.6,2.4c-2.4-0.5-4.5-2.2-5.4-4.5c-0.4,1.3,0,2.7-0.5,3.8h-6.3l-0.1-2
			c-0.4,0.5-0.8,0.9-1.3,1.3c-1.5,1.2-3.5,1.6-5.4,1.2c-2.3-0.4-4.2-1.9-5.2-4c-1-1.9-1.5-4-1.7-6.1c-0.3-2.8,0-5.7,0.7-8.5
			c0.5-2.3,1.8-4.4,3.8-5.8c2.2-1.6,6.1-1.7,8.3,0.3c0.3,0.3,0.6,0.5,1.1,0.9l0.2-12.5c0.7-0.4,1.6-0.5,2.4-0.3
			c1.4-0.1,2.8,0,4.2,0.2v14.9c1.4-2.3,3.1-4,5.7-4.5s4.7,0.5,6.6,2.5c0-4.4,0-8.6,0.2-12.9h6.7C76.4,24.2,76.2,36,76,47.8z
			 M50.5,35.5c-0.1-1-0.1-1.7-0.2-2.5c-0.1-0.8-0.3-1.5-0.5-2.2c-0.4-1.2-1.5-2.1-2.8-2.1c-1.2,0.1-2.2,0.9-2.5,2.1
			c-0.8,2.5-1,5.2-0.5,7.8c0.1,1,0.6,2,1.3,2.7c1.5,1.4,3.9,0.8,4.6-1.6C50.2,38.2,50.4,36.8,50.5,35.5z M64.8,29.2
			c-0.6,0.5-1,1.2-1.2,2c-0.1,0.8-0.5,1.5-0.5,2.2c-0.3,2.2-0.2,4.5,0.5,6.7c0.3,1.2,1.3,2,2.5,2c1.3,0,2.4-0.9,2.7-2.2
			c0.9-2.8,0.9-5.8,0.2-8.7C68.4,29.6,66.8,28.2,64.8,29.2z"/>
		<path class="st0" d="M164.6,37.8l-12.8-0.2c-0.9,2,0.5,4.7,2.6,5.5c2.6,0.1,3.4-1.9,4.2-3.8c2.1,0.1,4.1,0.9,6.2,1.3
			c0.1,0.4,0.1,0.8,0,1.2c-0.2,0.7-0.5,1.4-0.8,2c-2.4,5.1-9.8,6.5-14.3,3.4c-1-0.7-1.8-1.7-2.3-2.8c-0.1-0.3-0.3-0.5-0.5-0.7
			l-0.2,4.2c-1.4,0.1-2.8,0.1-4.2-0.2l-0.2-1.7c-0.7,0.6-1.4,1.1-2.2,1.5c-2.1,1-5.4-0.6-6.5-2.6c-1.3-2.4-2-5.1-2.2-7.8
			c-0.2-2.5,0-5,0.6-7.5c0.5-2.3,1.2-4.5,3.2-6.1c2-1.8,5-1.6,6.8,0.4c0.2,0.2,0.3,0.4,0.4,0.6c0.1,0.2,0.2,0.3,0.5,0.7
			c0.1-0.5,0.1-0.8,0.1-1c0.1-3.2,0.1-6.4,0.2-9.6c0-0.6,0.1-1.2,0.2-2l4.1,0.4c0.1,2.7,0,5.2-0.1,7.8s0,5,0,7.7
			c0.2-0.2,0.3-0.3,0.4-0.4c1.5-3.6,5.1-4.9,8.8-4.6c3.1,0.3,5.9,2.1,7.4,4.9c0.2,0.5,0.4,0.9,0.6,1.4c0.6,1.8,0.9,3.7,0.9,5.7
			C165.4,36.2,165.1,37.1,164.6,37.8z M139.3,41.8c1.5,0.2,2.1-0.2,2.6-1.5c0.2-0.4,0.3-0.8,0.4-1.2c0.4-2.5,0.5-5.1,0.1-7.6
			c-0.1-0.9-0.5-1.8-1.2-2.4c-0.5-0.7-1.5-0.8-2.1-0.2c-0.2,0.1-0.3,0.3-0.4,0.5c-0.4,0.6-0.7,1.2-0.8,1.9c-0.5,2.3-0.6,4.7-0.3,7
			C137.5,39.5,138.1,40.9,139.3,41.8L139.3,41.8z M158.5,32.7c0.3-1.2-0.2-2.5-1.3-3.2c-1.1-0.8-2.6-0.8-3.7,0
			c-1,0.7-1.5,1.9-1.2,3.1L158.5,32.7z"/>
		<path class="st0" d="M221.1,57.7h2.6c0.2,0,0.5-0.2,0.8-0.1c2.1,0.5,4.1,0.1,6.2,0.1c1.3,0,2.5,0,3.8-0.1c0.8-0.1,1.6-0.2,2.3-0.3
			l1,1.2l-0.6,1.7c-0.8,0.2-1.6,0.3-2.4,0.3c-1.4,0.2-2.8,0.1-4.2,0.2c-1.2,0.2-2.4,0.2-3.5,0c-1-0.1-2-0.1-3,0.1
			c-1,0.2-2,0.3-3,0.2c-1.4-0.1-2.8-0.1-4.2,0c-1.9,0-3.9,0-5.8,0.1c-1.3,0.1-2.7,0.4-4,0.6c-0.2,0-0.4,0-0.6,0
			c-1.7-0.2-3.4-0.1-5.1,0.3c-0.6,0.1-1.2,0.1-1.7,0.1l-7.7,0.2c-1.6,0-3.3,0-4.9,0.1c-0.8,0-1.6,0.1-2.4,0.2c-0.5,0-1.1,0-1.6,0
			c-1.5,0.4-3,0.5-4.5,0.3c-0.3,0-0.5,0-0.8,0c-2.3,0.4-4.7,0.5-7.1,0.4c-0.6,0.1-1.2,0.2-1.7,0.4c-0.3-0.1-0.6-0.2-0.9-0.2
			c-1,0-2,0.1-3.1,0.2h-2.5c-1,0-2,0.2-3,0.2c-2.4,0.1-4.9,0.2-7.3,0.3c-1.6,0.1-3.2,0.2-4.9,0.2s-3.5,0.1-5.2,0.2
			c-1.4,0.1-2.9,0.3-4.3,0.4c-2.1,0.1-4.2,0.1-6.4,0.2c-1.2,0-2.4,0.2-3.5,0.3c-1.6,0.1-3.1,0.1-4.7,0.2c-1.5-0.1-3.1,0-4.6,0.1
			c-0.3,0.1-0.8-0.1-1.1,0l-5.2,0.2v0.1l-3.1,0.2c-1.4,0.1-2.8,0.2-4.3,0.2c-1.7,0.1-3.4,0.1-5,0.1c-1.1,0-2.1,0.1-3.2,0.2
			c-0.5,0-1,0.1-1.5,0.1c-0.8,0-1.6,0.1-2.4,0.2h-3.9c-0.9-0.1-1.8,0-2.6,0.1c-1,0.1-2,0.2-2.9,0.2c-2.6,0.1-5.1,0.2-7.7,0.3
			c-0.7,0-1.3-0.1-2,0c-1.2,0-2.3,0.1-3.5,0.2c-2.2,0.1-4.5,0.2-6.7,0.3c-1,0-2-0.1-3-0.1c-0.3,0-0.7,0.1-1,0.1H58
			c-0.3,0-0.5,0-0.8,0c-1.8,0.3-3.6,0.4-5.4,0.4c-0.9,0-1.9-0.1-2.8-0.3c-0.8-0.8-0.7-1.7-0.1-2.7c1.5,0,3.1-0.1,4.7-0.2l7.4-0.4
			h3.2c1,0.1,1.9,0.1,2.9,0c2.5-0.2,5-0.3,7.5-0.2c0.5,0,1-0.1,1.5-0.2c1-0.2,2.1-0.2,3.1-0.1c0.6,0.1,1.3,0.1,1.9-0.1
			c0.4-0.2,0.9,0,1.4-0.1c1.7-0.1,3.4-0.4,5.2-0.4c0.8,0.1,1.7,0.1,2.5,0c0.6-0.1,1.2-0.1,1.9-0.1c1.7-0.2,3.3,0.2,5-0.4
			c0.2-0.1,0.6,0.1,0.9,0.1c2,0,4,0,5.9-0.2c1.5-0.2,3.1-0.2,4.7-0.2c1.7,0.1,3.5,0,5.2-0.2c1.7-0.2,3.4-0.3,5.1-0.2
			c2-0.1,4-0.1,6.1-0.2c0.7,0,1.3-0.2,2-0.2c1.6,0.1,3.2,0.1,4.8,0c1-0.2,2.1-0.3,3.1-0.4c0.8-0.1,1.7-0.1,2.6-0.1
			c1.8,0.1,3.7,0.1,5.5-0.1c1.3-0.1,2.6,0.2,3.9-0.3c0.7,0.6,1.5-0.3,2.3,0c0.8,0.1,1.5,0,2.3-0.1c1.8,0,3.7,0,5.5-0.1
			c2.1-0.1,4.1-0.3,6.2-0.4c1.8-0.1,3.5-0.1,5.3-0.1c1.6,0,3.1-0.3,4.7-0.2c1.6,0,3.1-0.2,4.7-0.4c0.4-0.1,0.8-0.1,1.1,0
			c1.1,0.1,2.2,0.1,3.3-0.1c1.5-0.1,3-0.1,4.5-0.2h0.6c1.2-0.1,2.4-0.2,3.5-0.3c0.8,0,1.7,0,2.5,0c2.2-0.1,4.4-0.2,6.6-0.2
			c2.3,0,4.6-0.6,7-0.3c0.8,0.1,1.6,0,2.4-0.3c1.6-0.5,3.2,0,4.8-0.5c1.1-0.2,2.3-0.2,3.4-0.1c1.2,0,2.5-0.1,3.8-0.2L221.1,57.7z"/>
		<path class="st0" d="M1.5,12.6c1.9-0.4,3.7-0.7,5.4-1.1c2-0.4,3.9-1.1,5.6-2.2C15.1,7.7,18,6.7,21,6.6c0.4,0,0.7,0,1.1,0.1
			c0.1,2,0,4-0.3,6c-1.4,0.3-2.8,0.6-4.1,0.8c-2,0.4-3.9,1.2-5.5,2.4c-1.2,0.8-2.6,1.4-4,1.7c-0.1,0.2-0.4,0.4-0.4,0.6
			c-0.1,1.9-0.2,3.9-0.3,6c3.5-0.4,5.9-3.1,9.1-3.9c0.4,1,0.3,5.4-0.2,6.5c-0.2,0.1-0.5,0.2-0.8,0.4c-1.1,0.6-2.2,1.1-3.3,1.7
			s-2.5,1.1-3.7,1.7c-0.4,0.2-0.9,0.3-1.3,0.5c-0.4,2.7-0.5,6.3-0.1,7.4c1.7-0.4,3.3-1.1,4.7-2c2.4-1.6,5.1-2.5,7.9-2.8
			c0.4,0,0.8,0,1.3,0v6.4c-0.7,0.1-1.2,0.2-1.8,0.3c-2.8,0.4-5.5,1.4-7.9,3c-0.9,0.5-1.9,1-2.9,1.2C6.8,45,5,45.5,3.1,46
			c-0.9,0.2-1.8,0.3-2.9,0.5C0.1,46,0,45.6,0,45.1c0.1-3.4,0.3-6.7,0.5-10.1c0.1-2.2,0.2-4.4,0.3-6.7L1.1,18c0-1.4,0.1-2.8,0.2-4.2
			C1.4,13.4,1.4,13,1.5,12.6z"/>
		<path class="st0" d="M188.5,0c0.6,0.1,1.1,0.2,1.7,0.3c1.6,0.3,3.2,0.8,4.8,0.9c2.4,0.2,4.5,1.8,5.4,4c0.8,1.6,1.3,3.4,1.4,5.2
			c0,0.1,0.1,0.3,0.1,0.4h5.4l0.3,2.5c0.9-1.4,2-2.6,3.6-2.9c0.8-0.2,1.6,0.1,2,0.7c0.1,2.3,0.1,4.6,0,6.9h-2.1
			c-1.3,0-2.5,0.8-3,2.1c-0.5,1.2-0.7,2.4-0.8,3.6c-0.1,3.4-0.1,6.8-0.2,10.1c0,0.4-0.1,0.8-0.1,1.2h-5.3c-0.1-0.5-0.2-1-0.2-1.5
			c0.1-5.4,0.1-10.9,0.2-16.3c0-0.4,0-0.8-0.2-1.1c-0.1,0.4-0.3,0.8-0.4,1.2c-0.5,1.6-1.3,3.1-2.4,4.3c-0.9,1.1-2.4,1.6-3.8,1.4
			c-1.2-0.1-2.4-0.4-3.6-0.5c-0.5,3.8-0.2,7.6-0.4,11.6c-1.2-0.2-2.3,0-3.2-0.9C187.3,31.2,188.1,1.3,188.5,0z M191.4,16.1l4,0.7
			c0.4-0.4,0.9-0.8,1.1-1.4c0.7-2,0.8-4.1,0.2-6.2c-0.1-0.8-0.6-1.5-1.3-1.9l-4-0.6L191.4,16.1z"/>
		<path class="st0" d="M90.4,46.8l-8.2-23.3c2.8-0.1,5.3,0,8,0.1c1.1,4.8,2.2,9.5,3.4,14.5L97,23.7c2.6-0.1,5.1-0.1,7.7,0.1
			c-0.2,0.6-0.3,1.1-0.4,1.5c-1.3,3.9-2.6,7.8-3.9,11.7c-1.5,4.5-3.1,9.1-4.6,13.6c-0.6,1.8-1.3,3.5-1.9,5.2h-7.1
			c-0.2,0-0.3-0.2-0.6-0.5C87.3,52.5,88.8,49.7,90.4,46.8z"/>
	</g>
</g>
</svg>
